<svg width="30" height="30" viewBox="0 0 30 30" fill="none" xmlns="http://www.w3.org/2000/svg">
<g clip-path="url(#clip0_6_10630)">
<path d="M3.16256 24.5625L4.83756 25.2625V13.975L1.80006 21.3C1.28756 22.575 1.90006 24.0375 3.16256 24.5625V24.5625ZM27.5376 19.9375L21.3376 4.975C20.9501 4.0375 20.0376 3.4625 19.0751 3.4375C18.7501 3.4375 18.4126 3.4875 18.0876 3.625L8.87506 7.4375C7.93756 7.825 7.36256 8.725 7.33756 9.6875C7.32506 10.025 7.38756 10.3625 7.52506 10.6875L13.7251 25.65C14.1126 26.6 15.0376 27.175 16.0126 27.1875C16.3376 27.1875 16.6626 27.125 16.9751 27L26.1751 23.1875C27.4501 22.6625 28.0626 21.2 27.5376 19.9375V19.9375ZM9.85006 10.9375C9.16256 10.9375 8.60006 10.375 8.60006 9.6875C8.60006 9 9.16256 8.4375 9.85006 8.4375C10.5376 8.4375 11.1001 9 11.1001 9.6875C11.1001 10.375 10.5376 10.9375 9.85006 10.9375V10.9375ZM7.35006 24.6875C7.35006 26.0625 8.47506 27.1875 9.85006 27.1875H11.6626L7.35006 16.7625V24.6875Z" fill="#7B1FA2"/>
</g>
<defs>
<clipPath id="clip0_6_10630">
<rect width="30" height="30" fill="white"/>
</clipPath>
</defs>
</svg>
